#!OML:ASF F:\VICON\USERDATA\INSTALL\rory3\rory3.ASF
:FULLY-SPECIFIED
:DEGREES
19
root 1.00032 18.0157 -7.487980000000036 -4.430659999999998 -5.598700000000007 0.09452550000000248
lfemur -12.398600000000002 -5.153559999999996 -24.837400000000006
ltibia 29.144099999999998
lfoot -8.427670000000003 2.0857800000000006
ltoes -0.16395500000000007
rfemur -13.5365 0.008644059999996845 21.184900000000006
rtibia 73.63209999999994
rfoot 5.6227399999999985 -3.257650000000005
rtoes 7.041800000000009
lowerback 11.575799999999997 1.8132299999999983 0.840806999999999
upperback 0.6631379999999996 2.545889999999998 0.47846199999999917
thorax -5.781469999999999 1.2337700000000007 -0.38783799999999913
lowerneck -15.771899999999999 -2.80712 -1.208860000000001
upperneck 22.643300000000004 -3.4024200000000007 -0.8653009999999987
head 9.79117 -1.78266 -0.5408649999999995
lclavicle -1.923860000000002e-14 -7.156249999999985e-15
lhumerus -35.552800000000005 9.443239999999998 79.0333
lradius 22.5839
lwrist 3.8266800000000014
lhand -26.029499999999995 20.642
lfingers 7.12502
lthumb 0.5172569999999954 50.6211
rclavicle -1.923860000000002e-14 -7.156249999999985e-15
rhumerus -24.849800000000002 -19.1006 -80.4064
rradius 25.542
rwrist 6.188299999999997
rhand -17.9047 22.67
rfingers 7.12502
rthumb 8.36226 -7.14443
20
root 0.9902060000000003 18.0279 -6.959620000000022 -4.508300000000004 -4.8779100000000035 0.5858049999999937
lfemur -10.225699999999998 -5.353249999999991 -25.689599999999988
ltibia 28.174300000000002
lfoot -9.693570000000006 2.184960000000004
ltoes 0.4452240000000067
rfemur -17.485800000000005 -0.6966359999999887 20.530199999999994
rtibia 74.85910000000005
rfoot 2.4808099999999733 -5.227809999999999
rtoes 9.998570000000003
lowerback 11.591299999999999 1.4242000000000001 0.36849399999999843
upperback 0.5755900000000007 1.9689500000000004 0.4832070000000016
thorax -5.90396 0.9623280000000005 -0.025133499999998588
lowerneck -15.953 -2.70929 -1.2024399999999993
upperneck 23.156999999999996 -3.2031899999999998 -1.1165100000000017
head 10.003800000000002 -1.7193200000000002 -0.6134069999999989
lclavicle 6.994739999999994e-15 1.5505199999999985e-14
lhumerus -34.346900000000005 8.467189999999995 79.4171
lradius 23.375800000000005
lwrist 3.9451699999999983
lhand -25.803600000000003 23.720500000000005
lfingers 7.12502
lthumb 0.7354490000000014 53.699
rclavicle 6.994739999999994e-15 1.5505199999999985e-14
rhumerus -25.684599999999996 -20.493300000000005 -79.9332
rradius 24.915199999999995
rwrist 6.678459999999998
rhand -15.921000000000003 8.686340000000024
rfingers 7.12502
rthumb 10.2764 -21.042600000000018
21
root 0.35660733470056827 17.93226063303658 18.541262216441968 -3.0329184684213333 -2.9546753146546694 1.706398664045741
lfemur 1.9970527450957327 -3.2848776504462034 -25.7195947043508
ltibia 19.061813816819846
lfoot -2.8818393138648393 -3.844380687833916
ltoes -7.680460974556169
rfemur -24.963157824763478 0.4271694335502225 18.793298952105758
rtibia 73.43749770288548
rfoot -0.6079092788690827 0.28326619701111344
rtoes 6.989493275940025
lowerback 10.18567190687387 0.19241607212120632 -1.5706039231087248
upperback 0.3929358908330136 -0.1776211463063534 0.7405374245050906
thorax -5.411755589100027 0.18941358968198904 2.1718597165850797
lowerneck -16.714159792406097 -2.6778528416920184 -1.2661135963600774
upperneck 22.591984369709603 -3.337780279287026 -0.20846282366802615
head 9.947585556803068 -1.686647832799479 -0.15323347077292754
lclavicle 5.462452459577708e-16 -7.05173884403378e-16
lhumerus -30.764578356620234 4.574619145178705 79.56262059757044
lradius 26.113328080951373
lwrist 6.8135857602661805
lhand -28.479735817729406 19.051031426824885
lfingers nan
lthumb -1.4446572996239637 49.80896171392186
rclavicle 4.4343823572081e-16 -7.842660004692824e-16
rhumerus -28.00042424587224 -21.098651793058607 -80.77395785432525
rradius 24.354103302329126
rwrist 3.6953024439258533
rhand -17.76057639486719 21.25660039007083
rfingers nan
rthumb 8.913676643715787 -8.569736269800693
22
root 0.07048614453403934 17.884366397270174 12.577358343994405 -2.757815531922998 -2.860847738012277 3.4156543002925197
lfemur 7.5654741120856315 -3.410760510380963 -27.611613908697066
ltibia 12.471203979364748
lfoot 3.085918725015283 -6.976383560651819
ltoes -6.771994328142608
rfemur -27.09680641551025 0.8672420735781436 17.04015112441909
rtibia 69.42286500728594
rfoot -2.458481278843742 0.6155274841114435
rtoes 5.167009625774583
lowerback 10.233296743195247 -0.17138384014280622 -3.425692839399105
upperback 0.28575456441577074 -0.8762287422002527 0.5860339060636648
thorax -5.16527377438855 -0.21132919853621007 2.668503615732713
lowerneck -16.7630596057155 -2.6309047044533784 -1.5165861183766265
upperneck 22.117749519171763 -3.2522166584110943 0.27617887354797754
head 9.758536578156475 -1.649165478893012 0.12984269323577668
lclavicle 4.575948661959159e-16 -7.622294283239876e-16
lhumerus -27.107732228203947 1.1836710183208483 79.43530665261012
lradius 27.496902462339886
lwrist 7.614279753561108
lhand -28.745886679469308 18.48971806314284
lfingers nan
lthumb -1.8301144686462998 48.625421530941175
rclavicle 4.042028546292767e-16 -7.924239017150962e-16
rhumerus -29.9131884018103 -21.46530867373456 -81.26249416145941
rradius 24.08687610359855
rwrist 2.95148266795737
rhand -17.794520113751297 21.46536622904168
rfingers nan
rthumb 8.806706304509671 -8.305627353030184
23
root -0.04103154652758245 17.874996850697734 10.120786198373601 -2.4282754586996105 -2.4989553035338465 4.290446525069619
lfemur 10.463381324900766 -4.542986663765324 -28.815050014845454
ltibia 10.512673232860525
lfoot 2.9632113684637886 -8.523705709270892
ltoes -5.459670574531717
rfemur -27.310554097179754 0.6937104062383033 16.555415907046772
rtibia 63.01031095168693
rfoot -3.3205110380717517 -0.1544532865941015
rtoes 3.694052021039989
lowerback 10.222495395015498 -0.5206975888095993 -4.216942811475601
upperback 0.274264002860603 -1.4547405655765036 0.6035166498446887
thorax -5.02186582056715 -0.49844235879352844 3.086066243134393
lowerneck -16.65939657557347 -2.5663050243079506 -1.744276480240871
upperneck 22.01907902718516 -3.1377174162077512 0.3862634653645316
head 9.654889557236475 -1.6092268210256229 0.2454064147665045
lclavicle 4.700695506164626e-16 -7.498891742699368e-16
lhumerus -24.267990405196276 -1.3932012746779012 78.94929213903443
lradius 28.17090071986403
lwrist 7.494457984934024
lhand -29.003300759097616 17.800687270326357
lfingers nan
lthumb -2.0464984736252685 47.75158914739758
rclavicle 4.1284341135240484e-16 -7.803052102362694e-16
rhumerus -31.668210296015953 -22.06713462199828 -81.07680573601587
rradius 24.04917676907391
rwrist 2.5492735301200735
rhand -17.743193623619668 21.637993725751254
rfingers nan
rthumb 8.640470311232862 -8.321933134568702
24
root -0.07989294237711836 17.878181959265156 9.259178874856776 -2.1760707111048365 -2.2603687406732127 4.545721570837992
lfemur 11.814848410224155 -5.458987295573348 -29.295604165940073
ltibia 11.904903281762557
lfoot 2.0535098789643254 -7.215305555391016
ltoes -7.637005427115129
rfemur -27.347007426580138 0.6611810254913815 16.7899012374822
rtibia 56.25080942327736
rfoot -3.6446739479963233 -0.5916453530281505
rtoes 2.5915365530548473
lowerback 10.29686126234842 -0.7734693682438818 -4.537236995442777
upperback 0.2544932397265315 -1.7225564814512664 0.7077112264112305
thorax -5.128528722081853 -0.6724406547308128 3.2708238128122185
lowerneck -16.537969492289278 -2.5081937712963023 -1.8889454974884692
upperneck 22.164159203241766 -3.038535648826436 0.30555044972891465
head 9.700700946520652 -1.5777943714116434 0.23412827875419273
lclavicle 4.788372144206988e-16 -7.4105695697258e-16
lhumerus -22.697712398904503 -1.890585021331252 78.52856321556492
lradius 29.26212231256008
lwrist 7.181391070964642
lhand -29.067574223313443 17.794364846439784
lfingers nan
lthumb -2.1115786872617743 47.62719427578555
rclavicle 3.681909806337278e-16 -8.073002102425923e-16
rhumerus -33.23046964808394 -22.470524446682827 -80.18137068074337
rradius 24.382355662105926
rwrist 2.2627063443761273
rhand -17.752838182586817 21.625556850387618
rfingers nan
rthumb 8.612621821041325 -8.229561545500278
